<?xml version="1.0" encoding="UTF-8"?> <svg xmlns="http://www.w3.org/2000/svg" width="101.808" height="32.068" viewBox="0 0 101.808 32.068"><g transform="translate(-649.695 -1433.03)"><line x1="0.121" y2="13.189" transform="translate(744.834 1439.304)" fill="none" stroke="#fff" stroke-miterlimit="10" stroke-width="1"></line><path d="M654.94,1510.641h-5.245v-21.1h5.245Z" transform="translate(0 -45.977)" fill="#fff"></path><path d="M703.064,1497.948h9.341v4.469h-9.341v3.662h10.706v4.562H697.82v-21.1h15.951v4.562H703.064Z" transform="translate(-39.156 -45.977)" fill="#fff"></path><path d="M807.9,1489.538c6.61,0,11.39,4.314,11.39,10.49,0,6.268-4.779,10.613-11.39,10.613h-8.5v-21.1Zm0,16.386a5.838,5.838,0,1,0,0-11.669h-3.259v11.669Z" transform="translate(-121.805 -45.977)" fill="#fff"></path><path d="M927.376,1497.948h9.341v4.469h-9.341v3.662h10.706v4.562H922.131v-21.1h15.951v4.562H927.376Z" transform="translate(-221.663 -45.977)" fill="#fff"></path><path d="M1030.133,1496.164l-2.948-.683c-1.583-.341-2.421-.838-2.421-1.986,0-1.365,1.211-2.11,3.01-2.11a4.7,4.7,0,0,1,1.284.164l3.931-3.155a11.287,11.287,0,0,0-5.556-1.354c-4.965,0-8.379,2.669-8.379,6.89,0,3.351,1.955,5.307,6.114,6.207l3.476.776c1.8.341,2.234,1.086,2.234,1.8,0,1.148-1.024,1.862-2.979,1.862-2.483,0-4.1-1.117-4.438-2.979h-5.245c.5,5.214,4.78,7.448,9.528,7.448,5.276,0,8.751-2.638,8.751-6.858C1036.5,1498.553,1033.981,1497,1030.133,1496.164Z" transform="translate(-299.841 -43.944)" fill="#fff"></path><path d="M1132.11,1435.016a7.067,7.067,0,1,1-9.993.168,7.067,7.067,0,0,1,9.993-.168" transform="translate(-382.761 0)" fill="#fff"></path><line x1="10.107" y1="6.412" transform="translate(734.787 1448.765)" fill="none" stroke="#fff" stroke-miterlimit="10" stroke-width="1"></line><path d="M1091.891,1502.752a2.4,2.4,0,1,1-3.392.057,2.4,2.4,0,0,1,3.392-.057" transform="translate(-356.476 -56.18)" fill="#fff"></path><path d="M1145.8,1531.489a4.008,4.008,0,1,1-5.667.1,4.008,4.008,0,0,1,5.667-.1" transform="translate(-398.122 -79.194)" fill="#fff"></path></g></svg> 